<svg width="512" height="512" viewBox="0 0 512 512" fill="none" xmlns="http://www.w3.org/2000/svg">
<path d="M262.29 192.31C249.159 191.013 235.948 193.807 224.466 200.308C212.983 206.81 203.791 216.701 198.148 228.629C192.505 240.556 190.686 253.937 192.941 266.937C195.196 279.938 201.415 291.925 210.745 301.255C220.075 310.585 232.062 316.804 245.063 319.059C258.064 321.314 271.444 319.495 283.371 313.852C295.299 308.209 305.19 299.017 311.692 287.534C318.193 276.052 320.987 262.841 319.69 249.71C318.212 234.99 311.689 221.233 301.228 210.772C290.767 200.311 277.01 193.788 262.29 192.31V192.31ZM416.39 256C416.349 262.957 415.838 269.902 414.86 276.79L460.07 312.25C462.039 313.882 463.365 316.159 463.814 318.676C464.262 321.194 463.804 323.789 462.52 326L419.75 400C418.451 402.19 416.421 403.851 414.017 404.691C411.613 405.531 408.99 405.495 406.61 404.59L361.71 386.51C359.234 385.524 356.552 385.168 353.905 385.473C351.257 385.779 348.727 386.736 346.54 388.26C339.688 392.979 332.487 397.171 325 400.8C322.646 401.944 320.61 403.65 319.072 405.767C317.534 407.884 316.541 410.348 316.18 412.94L309.45 460.83C309.008 463.359 307.701 465.656 305.753 467.329C303.805 469.001 301.337 469.946 298.77 470H213.23C210.705 469.956 208.271 469.054 206.328 467.442C204.385 465.829 203.049 463.603 202.54 461.13L195.82 413.31C195.443 410.689 194.424 408.203 192.854 406.071C191.283 403.939 189.211 402.228 186.82 401.09C179.342 397.48 172.166 393.277 165.36 388.52C163.181 387.004 160.659 386.054 158.021 385.755C155.383 385.457 152.713 385.819 150.25 386.81L105.36 404.88C102.981 405.786 100.359 405.823 97.9551 404.985C95.5514 404.148 93.5205 402.488 92.2201 400.3L49.4501 326.3C48.1642 324.089 47.7047 321.494 48.1533 318.976C48.602 316.458 49.9297 314.181 51.9001 312.55L90.1101 282.55C92.2034 280.888 93.8487 278.73 94.8964 276.271C95.9442 273.812 96.3614 271.131 96.1101 268.47C95.7501 264.3 95.5301 260.14 95.5301 255.97C95.5301 251.8 95.7401 247.7 96.1101 243.62C96.3339 240.975 95.8963 238.316 94.8367 235.883C93.777 233.449 92.1287 231.318 90.0401 229.68L51.8501 199.68C49.9117 198.041 48.6119 195.772 48.1786 193.271C47.7453 190.77 48.206 188.196 49.4801 186L92.2501 112C93.5489 109.81 95.5792 108.149 97.9831 107.309C100.387 106.469 103.01 106.505 105.39 107.41L150.29 125.49C152.766 126.476 155.448 126.832 158.096 126.527C160.743 126.221 163.274 125.264 165.46 123.74C172.313 119.021 179.513 114.829 187 111.2C189.354 110.056 191.39 108.35 192.928 106.233C194.466 104.116 195.459 101.652 195.82 99.06L202.55 51.17C202.992 48.6408 204.299 46.3436 206.247 44.6711C208.195 42.9985 210.663 42.0544 213.23 42H298.77C301.295 42.0437 303.729 42.946 305.672 44.5583C307.615 46.1707 308.951 48.3968 309.46 50.87L316.18 98.69C316.557 101.311 317.576 103.797 319.147 105.929C320.717 108.061 322.789 109.772 325.18 110.91C332.658 114.52 339.834 118.723 346.64 123.48C348.819 124.996 351.341 125.946 353.979 126.245C356.617 126.543 359.287 126.181 361.75 125.19L406.64 107.12C409.019 106.214 411.641 106.177 414.045 107.015C416.449 107.852 418.48 109.512 419.78 111.7L462.55 185.7C463.836 187.911 464.295 190.506 463.847 193.024C463.398 195.542 462.07 197.819 460.1 199.45L421.89 229.45C419.788 231.106 418.133 233.262 417.076 235.721C416.019 238.18 415.595 240.865 415.84 243.53C416.17 247.67 416.39 251.83 416.39 256Z" stroke="black" stroke-width="32" stroke-linecap="round" stroke-linejoin="round"/>
</svg>
